
<svg
    xmlns="http://www.w3.org/2000/svg"
    viewBox="0 0 609.96 967.73"
    width="25">
        <path
            d="M600.47,125.84c-168.44,0-305,132.7-305,296.38a288.3,288.3,0,0,0,23.41,114h0a292,292,0,0,0,16.35,32.37l265.22,524.94L865.69,568.63a288.59,288.59,0,0,0,39.76-146.41C905.45,258.54,768.91,125.84,600.47,125.84ZM464.28,693.9s123.5,85.33,275.35,0C739.63,693.9,602.8,799.43,464.28,693.9Zm136.19-16.84c-141.85,0-257.25-113.31-257.25-252.59s115.4-252.6,257.25-252.6,257.26,113.31,257.26,252.6S742.32,677.06,600.47,677.06Z"
            transform="translate(-295.49 -125.84)"
            style="fill:#d80101"/>
            <circle xmlns="http://www.w3.org/2000/svg" cx="304.57" cy="295.61" r="205.88" style="fill:white"/>
            <path
                d="M600.47,203.16c-122.6,0-222.33,98.21-222.33,218.92S477.87,641,600.47,641,822.8,542.79,822.8,422.08,723.06,203.16,600.47,203.16Zm-95.85,322.2c-18.27,0-33.08-14.08-33.08-31.44s14.81-31.45,33.08-31.45,33.07,14.08,33.07,31.45S522.88,525.36,504.62,525.36Zm178.77-1.7c-18.27,0-33.08-14.08-33.08-31.44s14.81-31.45,33.08-31.45,33.07,14.08,33.07,31.45S701.65,523.66,683.39,523.66Zm68.82-27.19H723.36a37.44,37.44,0,0,0,.25-4.25c0-21.12-18-38.24-40.22-38.24s-40.23,17.12-40.23,38.24a35.27,35.27,0,0,0,.26,4.25H544.74c.06-.85.1-1.7.1-2.55,0-21.12-18-38.24-40.22-38.24s-40.23,17.12-40.23,38.24c0,.85,0,1.7.1,2.55H417.91l-1.79-23.8h8.94l1.79-79.88,59-59.48,71.51,3.4v98.57H752.21Zm12.52-168.26v81.58c0,11.21-9.65,20.39-21.45,20.39H587.74c-11.79,0-21.45-9.18-21.45-20.39V328.21c0-11.22,9.66-20.4,21.45-20.4H743.28C755.08,307.81,764.73,317,764.73,328.21Z"
                transform="translate(-295.49 -125.84)"
                style="fill:#c30000"/>

            </svg>
